<svg xmlns="http://www.w3.org/2000/svg"  viewBox="0 0 48 48" width="144px" height="144px"><path d="M 10.5 8 C 6.9280619 8 4 10.928062 4 14.5 L 4 33.5 C 4 37.071938 6.9280619 40 10.5 40 L 37.5 40 C 41.071938 40 44 37.071938 44 33.5 L 44 14.5 C 44 10.928062 41.071938 8 37.5 8 L 10.5 8 z M 10.5 11 L 37.5 11 C 38.093018 11 38.640276 11.157774 39.126953 11.412109 L 24 19.589844 L 8.8730469 11.412109 C 9.3597237 11.157774 9.9069817 11 10.5 11 z M 10 18.84375 L 22.572266 25.638672 C 23.018266 25.879672 23.509 26 24 26 C 24.491 26 24.981734 25.879672 25.427734 25.638672 L 38 18.84375 L 38 36.951172 C 37.835551 36.974343 37.671413 37 37.5 37 L 10.5 37 C 10.328587 37 10.164449 36.974343 10 36.951172 L 10 18.84375 z"/></svg>